<?xml version="1.0" encoding="UTF-8"?>
<svg width="18px" height="30px" viewBox="0 0 18 30" version="1.1" xmlns="http://www.w3.org/2000/svg" xmlns:xlink="http://www.w3.org/1999/xlink">
    <!-- Generator: Sketch 44.1 (41455) - http://www.bohemiancoding.com/sketch -->
    <title>Shape</title>
    <desc>Created with Sketch.</desc>
    <defs></defs>
    <g id="Welcome" stroke="none" stroke-width="1" fill="none" fill-rule="evenodd">
        <g id="Desktop" transform="translate(-398.000000, -601.000000)" fill-rule="nonzero" fill="#999999">
            <g id="b1269c045fe4c90ba60cec054bd76362" transform="translate(398.000000, 601.000000)">
                <path d="M16.7742594,29.6085627 C16.2594484,30.0917431 15.4259448,30.0917431 14.9141982,29.6085627 L0.386108274,16.0122324 C-0.128702758,15.5351682 -0.128702758,14.7522936 0.386108274,14.2752294 C0.900919305,13.795107 1.73135853,13.795107 2.24616956,14.2752294 L16.7773238,27.8715596 C17.2890705,28.3486239 17.2890705,29.1253823 16.7742594,29.6085627 Z M16.7742594,2.09785933 L2.24310521,15.6941896 C1.73135853,16.17737 0.900919305,16.17737 0.386108274,15.6941896 C-0.128702758,15.2171254 -0.128702758,14.4342508 0.386108274,13.9571865 L14.9141982,0.363914373 C15.4290092,-0.119266055 16.2625128,-0.119266055 16.7742594,0.363914373 C17.2890705,0.840978593 17.2890705,1.62079511 16.7742594,2.09785933 Z" id="Shape"></path>
            </g>
        </g>
    </g>
</svg>