<?xml version="1.0" encoding="UTF-8"?>
<svg width="275px" height="75px" viewBox="0 0 275 75" version="1.1" xmlns="http://www.w3.org/2000/svg" xmlns:xlink="http://www.w3.org/1999/xlink">
    <!-- Generator: Sketch 44.1 (41455) - http://www.bohemiancoding.com/sketch -->
    <title>Discover_logo</title>
    <desc>Created with Sketch.</desc>
    <defs>
        <polygon id="path-1" points="137.394079 73.0263158 0.0197368421 73.0263158 0.0197368421 0.197039474 274.768421 0.197039474 274.768421 73.0263158"></polygon>
    </defs>
    <g id="Page-1" stroke="none" stroke-width="1" fill="none" fill-rule="evenodd">
        <g id="Discover_logo">
            <path d="M124.282237,48.0917763 C124.282237,49.36875 124.693092,50.3756579 125.996711,50.3756579 C127.300329,50.3756579 127.95625,49.5970395 127.95625,48.1881579 L127.95625,46.5700658 C127.95625,44.6805921 127.624013,44.5315789 126.985197,44.5315789 L126.862829,44.5315789 L126.862829,44.4351974 L126.994408,44.4351974 C127.387829,44.4351974 127.579934,44.4611842 127.991447,44.4611842 C128.402303,44.4611842 128.56875,44.4351974 128.9625,44.4351974 L129.093421,44.4351974 L129.093421,44.5315789 L128.970395,44.5315789 C128.341447,44.5315789 128.070066,44.7144737 128.070066,46.5700658 L128.070066,48.1881579 C128.070066,49.7197368 127.361513,50.6819079 125.621053,50.6819079 C124.299671,50.6819079 123.109539,50.0690789 123.109539,48.3542763 L123.109539,46.5608553 C123.109539,44.6631579 123.039803,44.5315789 122.585526,44.5315789 L122.462829,44.5315789 L122.462829,44.4351974 L122.59375,44.4351974 C122.9875,44.4351974 123.285197,44.4611842 123.695724,44.4611842 C124.142105,44.4611842 124.422039,44.4351974 124.815789,44.4351974 L124.946711,44.4351974 L124.946711,44.5315789 L124.824671,44.5315789 C124.325658,44.5315789 124.282237,44.6976974 124.282237,46.5608553 L124.282237,48.0917763" id="Fill-1" fill="#AC96CA"></path>
            <g id="Group-6" transform="translate(0.000000, 1.315789)">
                <mask id="mask-2" fill="white">
                    <use xlink:href="#path-1"></use>
                </mask>
                <g id="Clip-3"></g>
                <path d="M131.458224,46.7674342 C131.616118,46.7674342 131.616118,46.7851974 131.49375,46.4707237 L130.680263,44.3532895 L129.892763,46.4707237 C129.840132,46.6101974 129.813816,46.6884868 129.813816,46.7236842 C129.813816,46.7674342 129.849013,46.7674342 129.936513,46.7674342 L131.458224,46.7674342 Z M129.936513,46.8634868 C129.744079,46.8634868 129.735197,46.9157895 129.647697,47.14375 L129.621711,47.2134868 C129.376645,47.8694079 129.253947,48.2105263 129.253947,48.6131579 C129.253947,49.0680921 129.542434,49.1993421 130.128618,49.1993421 L130.286184,49.1993421 L130.286184,49.2953947 L130.154934,49.2953947 C129.866118,49.2953947 129.280263,49.2690789 129.201645,49.2690789 C128.825329,49.2690789 128.598026,49.2953947 128.291447,49.2953947 L128.195724,49.2953947 L128.195724,49.1993421 L128.300987,49.1993421 C128.878289,49.1993421 129.078947,48.4121711 129.525,47.1871711 L130.61875,44.2394737 C130.959868,43.3032895 131.170066,42.9529605 131.170066,42.9529605 L131.266118,42.9529605 C131.266118,42.9529605 131.528618,43.4430921 131.869737,44.3444079 L133.147368,47.6509868 C133.558224,48.7269737 133.750658,49.1993421 134.257895,49.1993421 L134.416118,49.1993421 L134.416118,49.2953947 L134.257895,49.2953947 C133.715789,49.2953947 133.330921,49.2782895 132.927961,49.2782895 C132.377303,49.2782895 132.158553,49.2953947 131.650987,49.2953947 L131.546053,49.2953947 L131.546053,49.1993421 L131.642434,49.1993421 C131.992105,49.1993421 132.263487,49.025 132.263487,48.7180921 C132.263487,48.5348684 132.167105,48.2463816 131.965461,47.7213816 L131.747039,47.14375 C131.659868,46.9157895 131.650987,46.8634868 131.458224,46.8634868 L129.936513,46.8634868 L129.936513,46.8634868 Z" id="Fill-2" fill="#AC96CA" mask="url(#mask-2)"></path>
                <path d="M274.768421,71.9575658 L274.768421,52.30625 C274.768421,52.2184211 274.318092,52.2184211 274.318092,52.30625 C274.318092,52.3957237 274.554934,71.3700658 256.879934,71.3253289 C255.894408,71.3220395 252.340132,71.3141447 250.960197,71.30625 C250.617105,71.30625 250.406908,71.1486842 250.406908,70.975 L250.406908,46.3082237 C250.406908,46.0901316 250.634539,45.9730263 250.95,45.9730263 L252.788816,45.9730263 C261.899013,45.9730263 262.123026,56.0976974 262.123026,56.2105263 C262.123026,56.3223684 262.414803,56.3006579 262.414803,56.2105263 C262.414803,56.11875 262.392434,35.5907895 262.392434,35.5 C262.392434,35.4108553 262.011513,35.3868421 262.011513,35.5 C262.011513,35.6134868 262.799671,45.4322368 253.012171,45.4322368 L250.95,45.4322368 C250.623026,45.4322368 250.406908,45.3180921 250.406908,45.1039474 L250.406908,22.1822368 C250.406908,21.9154605 250.613816,21.8526316 250.960197,21.8526316 L257.128618,21.8526316 C273.576645,21.8526316 273.236842,39.5726974 273.236842,39.6848684 C273.236842,39.7976974 273.598355,39.7746711 273.598355,39.6848684 L273.598355,21.3342105 C273.598355,21.3342105 226.239145,21.3470395 226.127961,21.3470395 C226.012829,21.3470395 225.993092,21.8644737 226.103947,21.8644737 L231.276645,21.8644737 C231.276645,21.8644737 231.839474,21.8914474 231.861842,22.1789474 C231.861842,25.8690789 231.853618,58.6993421 231.861842,59.1875 C231.880592,69.1342105 224.234539,72.38125 218.732895,72.4713816 C211.674013,72.5898026 208.433553,67.5157895 208.433553,61.7898026 C208.433553,60.4865132 208.408882,23.7503289 208.408882,22.6042763 C208.408882,21.7944079 209.630921,21.8644737 209.630921,21.8644737 C209.630921,21.8644737 213.525658,21.8644737 213.593092,21.8644737 C213.660526,21.8644737 213.692763,21.3253289 213.593092,21.3253289 L194.966447,21.3253289 C194.864474,21.3253289 194.842434,21.8644737 194.966447,21.8644737 C195.090461,21.8644737 198.917763,21.8572368 198.917763,21.8572368 C198.917763,21.8572368 199.835855,21.81875 199.859539,22.5595395 C199.873684,23.0309211 199.903947,56.9848684 199.903947,56.9848684 C199.903947,71.9111842 212.000329,73.0444079 218.732895,73.0111842 L218.741447,73.0263158 C224.465789,72.9289474 232.420395,69.5572368 232.396382,59.2075658 L232.396382,59.1875 C232.396382,55.0092105 232.399013,25.6559211 232.399013,22.1789474 C232.399013,21.8684211 232.9375,21.8644737 232.9375,21.8644737 C232.9375,21.8644737 241.060197,21.8657895 241.191447,21.8657895 C241.328289,21.8657895 241.734868,21.8855263 241.740789,22.2003289 C241.745066,22.5694079 241.740789,66.8101974 241.740789,71.0875 C241.740789,71.3042763 241.525329,71.4194079 241.191447,71.4194079 L237.465132,71.4194079 C237.365461,71.4194079 237.353289,71.9575658 237.465132,71.9575658 L274.768421,71.9575658 Z M189.933882,37.6769737 L189.954605,19.8141447 C189.954605,19.8141447 189.876974,19.6638158 189.652632,19.8713816 C189.571711,19.9480263 189.477303,20.0411184 189.36875,20.1526316 C184.313487,25.3174342 181.781579,19.9144737 174.434868,19.6759868 C165.382566,19.3842105 154.137171,31.9328947 153.993421,46.4111842 C153.848026,60.9776316 163.4125,72.2055921 173.870066,72.6026316 C179.539474,72.8197368 179.419408,71.2394737 186.415132,69.075 C190.692105,67.7486842 192.70625,70.6292763 192.864474,71.8256579 C193.136184,72.00625 193.156579,71.6884868 193.156579,71.6884868 L193.156579,51.2082237 C193.156579,50.8055921 193.723355,50.8703947 193.723355,50.8703947 L197.579605,50.8703947 C197.675329,50.8703947 197.675329,50.3085526 197.579605,50.3085526 L179.827303,50.3085526 C179.698684,50.3085526 179.698684,50.8490132 179.852961,50.8490132 L184.022697,50.8490132 C184.022697,50.8490132 184.798684,50.7680921 184.789803,51.1434211 L184.789803,63.0726974 C184.789803,72.2542763 175.641447,72.3559211 173.056908,72.0651316 C163.490461,70.9825658 163.291118,51.2371711 163.24375,46.0503289 C163.1125,31.9578947 165.327303,19.6832237 174.949671,20.1720395 C186.378618,20.7516447 189.36875,37.1240132 189.549671,37.8585526 C189.929605,37.9930921 189.933882,37.6769737 189.933882,37.6769737 L189.933882,37.6769737 Z M150.354934,46.2151316 C150.385197,30.9203947 139.296053,20.0236842 128.311184,19.9338816 C117.073026,19.8407895 106.292434,32.1819079 106.292434,46.2151316 C106.292434,60.7319079 116.480263,72.5486842 128.134211,72.5914474 C138.791776,72.6279605 150.327961,60.8213816 150.354934,46.2151316 L150.354934,46.2151316 Z M141.097697,45.9460526 C141.097697,60.0401316 139.046711,72.1976974 128.332237,72.1865132 C116.828947,72.175 115.544079,60.7611842 115.544079,45.9460526 C115.544079,31.8539474 118.249013,20.3345395 128.242434,20.3394737 C138.988816,20.3430921 141.097697,32.3348684 141.097697,45.9460526 L141.097697,45.9460526 Z M111.324013,21.7049342 C111.397368,21.7049342 111.397368,21.1661184 111.324013,21.1661184 L101.494408,21.1661184 C101.421382,21.1661184 101.421382,21.7049342 101.494408,21.7049342 L105.623684,21.7049342 C106.061842,21.7049342 106.06875,22.0121711 105.982895,22.3259868 C105.931908,22.5167763 105.847697,22.7078947 105.803618,22.8388158 C105.791776,22.8723684 94.3802632,58.1286184 94.3802632,58.1286184 C94.2006579,58.0615132 93.9766447,57.4592105 93.9766447,57.4592105 C93.9766447,57.4592105 81.1355263,22.3404605 81.0726974,22.2203947 C80.7592105,21.6384868 81.8121711,21.6825658 81.8121711,21.6825658 L85.5828947,21.6825658 C85.6549342,21.6825658 85.6898026,21.1440789 85.5828947,21.1440789 L67.3167763,21.1440789 C67.2039474,21.1440789 67.1865132,21.7049342 67.3167763,21.7049342 C67.4447368,21.7049342 71.5361842,21.70625 71.7151316,21.7049342 C72.2177632,21.7016447 72.3430921,21.6759868 72.5904605,22.5351974 C73.4082237,25.4029605 83.7753289,52.2907895 90.4526316,71.6177632 C90.5154605,71.8075658 90.5871711,72.0217105 90.5871711,72.0217105 C90.5871711,72.0217105 96.7930921,52.6759868 101.448026,38.1720395 C103.222697,32.64375 104.769737,27.8226974 105.663816,25.0411184 C106.045724,23.8493421 106.310526,23.0276316 106.419408,22.6891447 C106.421382,22.6848684 106.423355,22.6776316 106.424013,22.6733553 C106.433553,22.6476974 106.438487,22.6322368 106.444408,22.6131579 C106.461513,22.5608553 106.475658,22.5180921 106.477632,22.5141447 C106.589145,22.1881579 106.634211,21.9467105 106.897039,21.8148026 C107.053947,21.7358553 107.289145,21.6976974 107.665461,21.7049342 L111.324013,21.7049342 Z M67.3605263,24.3197368 C67.3605263,25.0565789 67.9582237,25.6536184 68.6950658,25.6536184 C69.4305921,25.6536184 70.0292763,25.0565789 70.0292763,24.3197368 C70.0292763,23.5832237 69.4305921,22.9855263 68.6950658,22.9855263 C67.9582237,22.9855263 67.3605263,23.5832237 67.3605263,24.3197368 L67.3605263,24.3197368 Z M67.5101974,24.3197368 C67.5101974,23.6674342 68.0398026,23.1378289 68.6917763,23.1378289 C69.3453947,23.1378289 69.8743421,23.6674342 69.8743421,24.3197368 C69.8743421,24.9726974 69.3453947,25.5013158 68.6917763,25.5013158 C68.0398026,25.5013158 67.5101974,24.9726974 67.5101974,24.3197368 L67.5101974,24.3197368 Z M68.7542763,23.6365132 L68.2315789,23.6365132 L68.2315789,25.0282895 L68.3506579,25.0282895 L68.3506579,24.3858553 L68.7128289,24.3858553 L69.13125,25.0282895 L69.2628289,25.0282895 L68.8473684,24.3898026 C69.0467105,24.3572368 69.20625,24.2460526 69.20625,24.0210526 C69.20625,23.7690789 69.0684211,23.6365132 68.7542763,23.6365132 L68.7542763,23.6365132 Z M68.7348684,23.7411184 C68.9016447,23.7411184 69.0875,23.8029605 69.0875,24.0184211 C69.0875,24.2605263 68.8575658,24.2815789 68.6473684,24.2815789 L68.3506579,24.2815789 L68.3506579,23.7411184 L68.7348684,23.7411184 L68.7348684,23.7411184 Z" id="Fill-4" fill="#000105" mask="url(#mask-2)"></path>
                <path d="M4.80493421,9.45657895 L7.15756579,9.45657895 L7.15756579,6.67861842 L4.80493421,6.67861842 L4.80493421,9.45657895 Z M7.15756579,4.27631579 L7.15756579,1.84868421 C7.15756579,1.04769737 7.25789474,0.197039474 8.35888158,0.197039474 C9.45986842,0.197039474 9.56019737,1.04769737 9.56019737,1.84868421 L9.56019737,4.27631579 L10.3108553,4.27631579 C11.1868421,4.27631579 11.9628289,4.45164474 11.9628289,5.47763158 C11.9628289,6.50361842 11.1868421,6.67894737 10.3108553,6.67894737 L9.56019737,6.67894737 L9.56019737,9.45657895 L10.3108553,9.45657895 C11.1868421,9.45657895 11.9628289,9.63190789 11.9628289,10.6578947 C11.9628289,11.6842105 11.1868421,11.8592105 10.3108553,11.8592105 L9.56019737,11.8592105 L9.56019737,14.2868421 C9.56019737,15.0878289 9.45986842,15.9388158 8.35888158,15.9388158 C7.25789474,15.9388158 7.15756579,15.0878289 7.15756579,14.2868421 L7.15756579,11.8592105 L4.80493421,11.8592105 L4.80493421,14.2868421 C4.80493421,15.0878289 4.70493421,15.9388158 3.60394737,15.9388158 C2.50263158,15.9388158 2.40263158,15.0878289 2.40263158,14.2868421 L2.40263158,11.8592105 L1.65164474,11.8592105 C0.775986842,11.8592105 0,11.6842105 0,10.6578947 C0,9.63190789 0.775986842,9.45657895 1.65164474,9.45657895 L2.40263158,9.45657895 L2.40263158,6.67894737 L1.65164474,6.67894737 C0.775986842,6.67894737 0,6.50361842 0,5.47763158 C0,4.45164474 0.775986842,4.27631579 1.65164474,4.27631579 L2.40263158,4.27631579 L2.40263158,1.84868421 C2.40263158,1.04769737 2.50263158,0.197039474 3.60394737,0.197039474 C4.70493421,0.197039474 4.80493421,1.04769737 4.80493421,1.84868421 L4.80493421,4.27631579 L7.15756579,4.27631579 L7.15756579,4.27631579 Z" id="Fill-5" fill="#000105" mask="url(#mask-2)"></path>
            </g>
            <path d="M22.7736842,17.2546053 L23.2490132,17.2546053 C24.3003289,17.2546053 24.5503289,17.1292763 25.0009868,16.2032895 L27.2032895,11.7486842 C27.4786184,11.1730263 27.6789474,10.7473684 27.6789474,10.1217105 C27.6789474,9.27105263 27.4036184,8.79539474 27.0532895,8.06973684 L24.9759868,3.84013158 C24.4503289,2.76414474 24.2253289,2.78914474 23.0740132,2.78914474 L22.7736842,2.78914474 L22.7736842,17.2546053 Z M20.2710526,2.78914474 L19.3450658,2.78914474 C18.5190789,2.78914474 17.8184211,2.48881579 17.8184211,1.53782895 C17.8184211,0.636842105 18.4940789,0.286513158 19.2700658,0.286513158 L23.4493421,0.286513158 C25.4013158,0.286513158 26.3776316,1.0875 27.2282895,2.78914474 L29.4305921,7.19375 C29.93125,8.21973684 30.18125,8.94572368 30.18125,10.0967105 C30.18125,11.0980263 29.90625,11.9490132 29.4555921,12.8496711 L27.1782895,17.4046053 C26.3023026,19.18125 25.1763158,19.7569079 23.2240132,19.7569079 L19.0697368,19.7569079 C18.4190789,19.7569079 17.8184211,19.4069079 17.8184211,18.5055921 C17.8184211,17.6046053 18.4190789,17.2546053 19.0697368,17.2546053 L20.2710526,17.2546053 L20.2710526,2.78914474 L20.2710526,2.78914474 Z" id="Fill-7" fill="#000105"></path>
            <path d="M39.6407895,1.4125 C39.6407895,0.561842105 40.1164474,0.286513158 40.7671053,0.286513158 L42.1434211,0.286513158 C42.7940789,0.286513158 43.2697368,0.561842105 43.2697368,1.4125 L43.2697368,2.56381579 C43.2697368,3.41480263 42.7940789,3.69013158 42.1434211,3.69013158 L40.7671053,3.69013158 C40.1164474,3.69013158 39.6407895,3.41480263 39.6407895,2.56381579 L39.6407895,1.4125 Z M43.2697368,17.3546053 L45.0717105,17.3546053 C45.8723684,17.3546053 46.7233553,17.5296053 46.7233553,18.5559211 C46.7233553,19.6069079 45.7720395,19.7569079 45.0717105,19.7569079 L38.9651316,19.7569079 C38.2644737,19.7569079 37.3134868,19.6069079 37.3134868,18.5559211 C37.3134868,17.5296053 38.1641447,17.3546053 38.9651316,17.3546053 L40.8671053,17.3546053 L40.8671053,8.67039474 L38.9651316,8.67039474 C38.2644737,8.67039474 37.3134868,8.52006579 37.3134868,7.46907895 C37.3134868,6.44309211 38.1641447,6.26776316 38.9651316,6.26776316 L41.4927632,6.26776316 C42.8690789,6.26776316 43.2697368,6.51809211 43.2697368,7.94473684 L43.2697368,17.3546053 L43.2697368,17.3546053 Z" id="Fill-8" fill="#000105"></path>
            <path d="M58.2598684,8.67039474 C57.7595395,8.67039474 56.9085526,8.57039474 56.9085526,9.34605263 C56.9085526,9.74638158 57.2088816,9.89671053 57.5592105,10.0467105 L63.5654605,12.7746711 C65.1171053,13.4753289 65.9180921,14.4513158 65.9180921,16.1782895 C65.9180921,18.6059211 64.2664474,19.7569079 61.9638158,19.7569079 L58.2598684,19.7569079 C57.0085526,19.7569079 56.1578947,19.7069079 55.2565789,19.00625 C54.80625,18.6559211 54.1555921,18.2055921 54.1555921,17.6046053 C54.1555921,16.9289474 54.73125,16.4036184 55.4069079,16.4036184 C55.7822368,16.4036184 56.0575658,16.5286184 56.3328947,16.8289474 C56.7582237,17.3042763 57.5092105,17.3546053 58.2598684,17.3546053 L61.5131579,17.3546053 C62.3641447,17.3546053 63.5154605,17.4296053 63.5154605,16.0279605 C63.5154605,15.4523026 62.8148026,15.0769737 62.2641447,14.8269737 L56.6082237,12.2490132 C55.2819079,11.6483553 54.5059211,10.8726974 54.5059211,9.32105263 C54.5059211,7.41907895 56.0075658,6.26776316 57.8095395,6.26776316 L61.9138158,6.26776316 C63.2401316,6.26776316 63.7907895,6.34309211 64.6917763,7.09375 C65.1421053,7.46907895 65.6427632,7.76940789 65.6427632,8.44506579 C65.6427632,9.12072368 65.0671053,9.64638158 64.4164474,9.64638158 C63.9661184,9.64638158 63.6907895,9.47105263 63.3904605,9.14572368 C62.9898026,8.72039474 62.5644737,8.67039474 61.9138158,8.67039474 L58.2598684,8.67039474" id="Fill-9" fill="#000105"></path>
            <path d="M72.1743421,11.8486842 C72.1743421,10.3720395 72.4496711,9.64638158 73.6006579,8.69539474 L75.3776316,7.21875 C76.5036184,6.29276316 77.0792763,6.26776316 78.4809211,6.26776316 L82.2848684,6.26776316 C83.0858553,6.26776316 83.9365132,6.44309211 83.9365132,7.46907895 C83.9365132,8.52006579 82.9855263,8.67039474 82.2848684,8.67039474 L78.0555921,8.67039474 C77.5799342,8.67039474 77.1042763,8.92072368 76.6789474,9.27105263 L75.2273026,10.4970395 C74.8519737,10.7976974 74.5766447,11.0476974 74.5766447,11.5233553 L74.5766447,14.5013158 C74.5766447,14.9769737 74.8519737,15.2273026 75.2273026,15.5276316 L76.6789474,16.7539474 C77.1042763,17.1042763 77.5799342,17.3546053 78.0555921,17.3546053 L82.2848684,17.3546053 C82.9855263,17.3546053 83.9365132,17.5046053 83.9365132,18.5559211 C83.9365132,19.5819079 83.0858553,19.7569079 82.2848684,19.7569079 L78.4809211,19.7569079 C77.0792763,19.7569079 76.5036184,19.7319079 75.3776316,18.8059211 L73.6006579,17.3296053 C72.4496711,16.3782895 72.1743421,15.6526316 72.1743421,14.1763158 L72.1743421,11.8486842" id="Fill-10" fill="#000105"></path>
            <path d="M92.5950658,15.2773026 C92.5950658,15.7779605 92.7700658,16.1029605 93.4710526,16.7039474 C93.9967105,17.1542763 94.3720395,17.3546053 95.1226974,17.3546053 L97.0246711,17.3546053 C97.7756579,17.3546053 98.1509868,17.1542763 98.6766447,16.7039474 C99.3773026,16.1029605 99.5523026,15.7779605 99.5523026,15.2773026 L99.5523026,10.7473684 C99.5523026,10.2470395 99.3773026,9.92171053 98.6766447,9.32105263 C98.1509868,8.87072368 97.7756579,8.67039474 97.0246711,8.67039474 L95.1226974,8.67039474 C94.3720395,8.67039474 93.9967105,8.87072368 93.4710526,9.32105263 C92.7700658,9.92171053 92.5950658,10.2470395 92.5950658,10.7473684 L92.5950658,15.2773026 Z M90.1927632,10.7473684 C90.1927632,9.14572368 90.5177632,8.59539474 91.7190789,7.61940789 C92.8953947,6.64309211 93.4460526,6.26776316 95.1226974,6.26776316 L97.0246711,6.26776316 C98.7016447,6.26776316 99.2523026,6.64309211 100.428289,7.61940789 C101.629605,8.59539474 101.954934,9.14572368 101.954934,10.7473684 L101.954934,15.2773026 C101.954934,16.8539474 101.554605,17.4546053 100.303289,18.5055921 C99.0519737,19.5565789 98.5513158,19.7569079 97.0246711,19.7569079 L95.1226974,19.7569079 C93.5960526,19.7569079 93.0957237,19.5565789 91.8444079,18.5055921 C90.5930921,17.4546053 90.1927632,16.8539474 90.1927632,15.2773026 L90.1927632,10.7473684 L90.1927632,10.7473684 Z" id="Fill-11" fill="#000105"></path>
            <path d="M117.571053,9.27105263 L117.571053,8.04473684 C117.571053,7.19375 117.721053,6.26776316 118.797368,6.26776316 C119.648026,6.26776316 119.973355,6.94342105 119.973355,7.71940789 L119.973355,9.42105263 C119.973355,9.82138158 119.873355,10.0217105 119.698026,10.3970395 L116.119408,18.2555921 C115.894079,18.7559211 115.46875,19.7569079 114.868092,19.7569079 L113.316447,19.7569079 C112.715789,19.7569079 112.290461,18.7559211 112.065132,18.2555921 L108.486184,10.3970395 C108.311184,10.0217105 108.211184,9.82138158 108.211184,9.42105263 L108.211184,7.71940789 C108.211184,6.94342105 108.536513,6.26776316 109.3875,6.26776316 C110.463487,6.26776316 110.613816,7.19375 110.613816,8.04473684 L110.613816,9.27105263 L114.092105,17.2546053 L117.571053,9.27105263" id="Fill-12" fill="#000105"></path>
            <path d="M128.632237,12.3490132 L135.589474,12.3490132 L135.589474,10.8976974 C135.589474,10.4473684 135.614474,10.0720395 135.289145,9.77171053 L134.363158,8.97072368 C134.062829,8.69539474 133.5875,8.67039474 133.211842,8.67039474 L131.184868,8.67039474 C130.734539,8.67039474 130.359211,8.67039474 129.958553,8.94572368 L129.132566,9.54638158 C128.832237,9.77171053 128.632237,9.94671053 128.632237,10.6473684 L128.632237,12.3490132 Z M130.634211,19.7569079 C129.633224,19.7569079 129.232895,19.7569079 128.481908,19.10625 L127.455921,18.2055921 C126.504934,17.3546053 126.229605,16.8039474 126.229605,15.5026316 L126.229605,10.8726974 C126.229605,9.59638158 126.404934,8.84572368 127.405921,7.99473684 L128.256579,7.26907895 C129.382895,6.29276316 129.933553,6.26776316 130.909539,6.26776316 L133.112171,6.26776316 C134.288158,6.26776316 134.838816,6.39276316 135.764803,7.14375 L136.740461,7.91973684 C137.841776,8.79539474 137.992105,9.72138158 137.992105,11.0476974 L137.992105,12.975 C137.992105,14.3513158 137.766776,14.7516447 136.340461,14.7516447 L128.632237,14.7516447 L128.632237,15.5526316 C128.632237,15.7779605 128.807237,16.0782895 128.982566,16.2532895 L129.583224,16.9039474 C129.908553,17.2546053 130.383882,17.3546053 131.184868,17.3546053 L136.340461,17.3546053 C137.140789,17.3546053 137.992105,17.5296053 137.992105,18.5559211 C137.992105,19.6069079 137.041118,19.7569079 136.340461,19.7569079 L130.634211,19.7569079 L130.634211,19.7569079 Z" id="Fill-13" fill="#000105"></path>
            <path d="M144.248026,8.04473684 C144.248026,7.16875 144.348026,6.26776316 145.449342,6.26776316 C146.400329,6.26776316 146.650658,7.06875 146.650658,7.86940789 L146.650658,8.84572368 L148.527303,7.29375 C149.203289,6.74309211 149.904276,6.26776316 150.654605,6.26776316 L152.582237,6.26776316 C153.507895,6.26776316 154.283882,6.56809211 154.934211,7.21875 C155.735526,8.01973684 156.010197,8.84572368 156.010197,9.94671053 C156.010197,10.7723684 155.860526,11.6233553 154.834539,11.6233553 C153.958224,11.6233553 153.608224,10.9226974 153.608224,10.1470395 C153.608224,9.74638158 153.608224,9.44605263 153.357566,9.09572368 C153.057566,8.67039474 152.481908,8.67039474 151.90625,8.67039474 L151.205263,8.67039474 C150.754934,8.67039474 150.429934,8.89539474 150.004605,9.24605263 L146.650658,12.0240132 L146.650658,18.1052632 C146.650658,18.93125 146.475329,19.7569079 145.449342,19.7569079 C144.423355,19.7569079 144.248026,18.93125 144.248026,18.1052632 L144.248026,8.04473684" id="Fill-14" fill="#000105"></path>
            <path d="M164.669079,12.3490132 L171.626316,12.3490132 L171.626316,10.8976974 C171.626316,10.4473684 171.651316,10.0720395 171.326316,9.77171053 L170.400658,8.97072368 C170.1,8.69539474 169.624342,8.67039474 169.249342,8.67039474 L167.222039,8.67039474 C166.771053,8.67039474 166.396053,8.67039474 165.995724,8.94572368 L165.169408,9.54638158 C164.869408,9.77171053 164.669079,9.94671053 164.669079,10.6473684 L164.669079,12.3490132 Z M166.671711,19.7569079 C165.670724,19.7569079 165.269737,19.7569079 164.519408,19.10625 L163.493421,18.2055921 C162.541776,17.3546053 162.266776,16.8039474 162.266776,15.5026316 L162.266776,10.8726974 C162.266776,9.59638158 162.442105,8.84572368 163.443092,7.99473684 L164.29375,7.26907895 C165.420066,6.29276316 165.970724,6.26776316 166.946711,6.26776316 L169.149013,6.26776316 C170.325329,6.26776316 170.875987,6.39276316 171.801645,7.14375 L172.777632,7.91973684 C173.878947,8.79539474 174.029276,9.72138158 174.029276,11.0476974 L174.029276,12.975 C174.029276,14.3513158 173.803618,14.7516447 172.377303,14.7516447 L164.669079,14.7516447 L164.669079,15.5526316 C164.669079,15.7779605 164.844408,16.0782895 165.019737,16.2532895 L165.620395,16.9039474 C165.945724,17.2546053 166.421053,17.3546053 167.222039,17.3546053 L172.377303,17.3546053 C173.177961,17.3546053 174.029276,17.5296053 174.029276,18.5559211 C174.029276,19.6069079 173.078289,19.7569079 172.377303,19.7569079 L166.671711,19.7569079 L166.671711,19.7569079 Z" id="Fill-15" fill="#000105"></path>
            <path d="M182.687171,14.4766447 C182.687171,15.1523026 182.687171,16.0029605 183.063158,16.3032895 L183.788487,16.8789474 C184.089145,17.1292763 184.389145,17.3546053 184.689803,17.3546053 L186.391118,17.3546053 C186.691776,17.3546053 187.117105,17.1542763 187.567434,16.7539474 L188.944408,15.5776316 C189.294408,15.2773026 189.644737,14.9769737 189.644737,14.5266447 L189.644737,11.4983553 C189.644737,11.0476974 189.294408,10.7473684 188.944408,10.4473684 L187.567434,9.27105263 C187.117105,8.87072368 186.691776,8.67039474 186.391118,8.67039474 L184.689803,8.67039474 C184.389145,8.67039474 184.089145,8.89539474 183.788487,9.14572368 L183.063158,9.72138158 C182.687171,10.0217105 182.687171,10.8726974 182.687171,11.5483553 L182.687171,14.4766447 Z M186.867105,6.26776316 C187.692763,6.26776316 188.36875,6.71842105 189.244408,7.59407895 L189.644737,8.01973684 L189.644737,2.96447368 C189.644737,2.13848684 189.820066,1.3125 190.846053,1.3125 C191.872039,1.3125 192.047368,2.13848684 192.047368,2.96447368 L192.047368,18.0802632 C192.047368,18.90625 191.872039,19.7569079 190.846053,19.7569079 C189.895066,19.7569079 189.644737,18.95625 189.644737,18.1552632 L189.644737,18.0052632 L189.119079,18.5305921 C188.36875,19.2315789 187.542434,19.7569079 186.817105,19.7569079 L184.489474,19.7569079 C183.688816,19.7569079 182.7875,19.2065789 182.437171,18.90625 L181.611184,18.2055921 C180.610197,17.3546053 180.284868,16.7039474 180.284868,15.4273026 L180.284868,10.5973684 C180.284868,9.32105263 180.610197,8.67039474 181.611184,7.81940789 L182.437171,7.11875 C183.187829,6.46809211 183.738158,6.26776316 184.739803,6.26776316 L186.867105,6.26776316 L186.867105,6.26776316 Z" id="Fill-16" fill="#000105"></path>
            <path d="M200.505592,17.2546053 L205.010526,17.2546053 C206.812171,17.2546053 207.863158,16.4536184 207.863158,14.5516447 C207.863158,12.4493421 207.288158,11.2730263 205.010526,11.2730263 L200.505592,11.2730263 L200.505592,17.2546053 Z M200.505592,8.77039474 L205.010526,8.77039474 C206.812171,8.77039474 207.863158,7.96940789 207.863158,6.06776316 C207.863158,3.96546053 207.288158,2.78914474 205.010526,2.78914474 L200.505592,2.78914474 L200.505592,8.77039474 Z M198.003289,0.286513158 L205.010526,0.286513158 C208.689474,0.286513158 210.366447,2.53881579 210.366447,6.06776316 C210.366447,7.51907895 210.040461,8.84572368 208.714474,10.0217105 C210.140789,11.3733553 210.366447,12.6996711 210.366447,14.5516447 C210.366447,17.8299342 208.189145,19.7569079 205.010526,19.7569079 L198.003289,19.7569079 L198.003289,0.286513158 L198.003289,0.286513158 Z" id="Fill-17" fill="#000105"></path>
            <path d="M225.681579,9.29605263 L225.681579,7.91973684 C225.681579,7.09375 225.856908,6.26776316 226.883224,6.26776316 C227.909211,6.26776316 228.084539,7.09375 228.084539,7.91973684 L228.084539,8.89539474 C228.084539,9.49638158 228.034539,9.89671053 227.783882,10.4223684 L221.727961,23.6111842 C221.202303,24.7375 220.926645,24.8625 219.825658,24.8625 L217.974013,24.8625 C217.273026,24.8625 216.322039,24.7121711 216.322039,23.6611842 C216.322039,22.6351974 217.172697,22.4598684 217.974013,22.4598684 L219.625658,22.4598684 L221.402303,18.7809211 L221.277632,18.7809211 C220.275987,18.7809211 220.226316,18.3305921 219.850658,17.5046053 L216.897697,10.9726974 C216.572039,10.2470395 216.322039,9.69638158 216.322039,8.99572368 L216.322039,7.91973684 C216.322039,7.09375 216.497368,6.26776316 217.523355,6.26776316 C218.549671,6.26776316 218.724342,7.09375 218.724342,7.91973684 L218.724342,9.29605263 L221.952632,16.3782895 L222.478289,16.3782895 L225.681579,9.29605263" id="Fill-18" fill="#000105"></path>
        </g>
    </g>
</svg>