<?xml version="1.0" encoding="UTF-8"?>
<svg width="148px" height="115px" viewBox="0 0 148 115" version="1.1" xmlns="http://www.w3.org/2000/svg" xmlns:xlink="http://www.w3.org/1999/xlink">
    <!-- Generator: Sketch 44.1 (41455) - http://www.bohemiancoding.com/sketch -->
    <title>Mastercard-logo</title>
    <desc>Created with Sketch.</desc>
    <defs></defs>
    <g id="Page-1" stroke="none" stroke-width="1" fill="none" fill-rule="evenodd">
        <g id="Mastercard-logo" transform="translate(-1.000000, -1.000000)" fill-rule="nonzero">
            <g id="g15" transform="translate(7.765376, 97.814222)" fill="#000000">
                <path d="M20.1896154,17.9039986 L20.1896154,10.2852758 C20.1896154,7.36476538 18.4119135,5.46008468 15.3644243,5.46008468 C13.8406798,5.46008468 12.1899565,5.96799953 11.0471481,7.61872281 C10.1582971,6.22195696 8.88850994,5.46008468 6.98382924,5.46008468 C5.71404211,5.46008468 4.44425497,5.84102082 3.42842526,7.23778667 L3.42842526,5.71404211 L0.761872281,5.71404211 L0.761872281,17.9039986 L3.42842526,17.9039986 L3.42842526,11.1741268 C3.42842526,9.01548866 4.57123369,7.99965895 6.34893567,7.99965895 C8.12663766,7.99965895 9.01548866,9.14246737 9.01548866,11.1741268 L9.01548866,17.9039986 L11.6820416,17.9039986 L11.6820416,11.1741268 C11.6820416,9.01548866 12.9518288,7.99965895 14.6025521,7.99965895 C16.380254,7.99965895 17.269105,9.14246737 17.269105,11.1741268 L17.269105,17.9039986 L20.1896154,17.9039986 L20.1896154,17.9039986 Z M59.6799953,5.71404211 L55.3627191,5.71404211 L55.3627191,2.03165942 L52.6961661,2.03165942 L52.6961661,5.71404211 L50.2835705,5.71404211 L50.2835705,8.12663766 L52.6961661,8.12663766 L52.6961661,13.7137011 C52.6961661,16.5072328 53.8389745,18.157956 56.8864636,18.157956 C58.0292721,18.157956 59.2990592,17.7770199 60.1879102,17.269105 L59.4260379,14.9834882 C58.6641656,15.491403 57.7753146,15.6183818 57.1404211,15.6183818 C55.8706339,15.6183818 55.3627191,14.8565095 55.3627191,13.5867223 L55.3627191,8.12663766 L59.6799953,8.12663766 L59.6799953,5.71404211 L59.6799953,5.71404211 Z M82.2822063,5.46008468 C80.7584618,5.46008468 79.7426321,6.22195696 79.1077385,7.23778667 L79.1077385,5.71404211 L76.4411855,5.71404211 L76.4411855,17.9039986 L79.1077385,17.9039986 L79.1077385,11.0471481 C79.1077385,9.01548866 79.9965895,7.87268024 81.6473128,7.87268024 C82.1552276,7.87268024 82.7901212,7.99965895 83.2980361,8.12663766 L84.0599083,5.58706339 C83.5519935,5.46008468 82.7901212,5.46008468 82.2822063,5.46008468 L82.2822063,5.46008468 L82.2822063,5.46008468 Z M48.1249324,6.72987182 C46.8551453,5.84102082 45.0774433,5.46008468 43.1727626,5.46008468 C40.1252735,5.46008468 38.093614,6.98382924 38.093614,9.3964248 C38.093614,11.4280842 39.6173586,12.5708926 42.2839116,12.9518288 L43.5536987,13.0788075 C44.9504646,13.3327649 45.7123369,13.7137011 45.7123369,14.3485946 C45.7123369,15.2374456 44.6965072,15.8723392 42.9188052,15.8723392 C41.1411032,15.8723392 39.7443373,15.2374456 38.8554863,14.6025521 L37.5856992,16.6342115 C38.982465,17.6500412 40.8871457,18.157956 42.7918264,18.157956 C46.3472304,18.157956 48.3788898,16.5072328 48.3788898,14.2216159 C48.3788898,12.0629778 46.7281666,10.9201694 44.1885923,10.5392332 L42.9188052,10.4122545 C41.7759967,10.2852758 40.8871457,10.0313184 40.8871457,9.26944609 C40.8871457,8.38059509 41.7759967,7.87268024 43.1727626,7.87268024 C44.6965072,7.87268024 46.2202517,8.5075738 46.982124,8.88850994 L48.1249324,6.72987182 L48.1249324,6.72987182 Z M118.979055,5.46008468 C117.45531,5.46008468 116.43948,6.22195696 115.804587,7.23778667 L115.804587,5.71404211 L113.138034,5.71404211 L113.138034,17.9039986 L115.804587,17.9039986 L115.804587,11.0471481 C115.804587,9.01548866 116.693438,7.87268024 118.344161,7.87268024 C118.852076,7.87268024 119.486969,7.99965895 119.994884,8.12663766 L120.756757,5.58706339 C120.248842,5.46008468 119.486969,5.46008468 118.979055,5.46008468 L118.979055,5.46008468 L118.979055,5.46008468 Z M84.9487593,11.8090204 C84.9487593,15.491403 87.4883336,18.157956 91.4246737,18.157956 C93.2023757,18.157956 94.4721628,17.7770199 95.74195,16.7611902 L94.4721628,14.6025521 C93.4563331,15.3644243 92.4405034,15.7453605 91.297695,15.7453605 C89.1390569,15.7453605 87.6153123,14.2216159 87.6153123,11.8090204 C87.6153123,9.52340351 89.1390569,7.99965895 91.297695,7.87268024 C92.4405034,7.87268024 93.4563331,8.25361638 94.4721628,9.01548866 L95.74195,6.85685053 C94.4721628,5.84102082 93.2023757,5.46008468 91.4246737,5.46008468 C87.4883336,5.46008468 84.9487593,8.12663766 84.9487593,11.8090204 L84.9487593,11.8090204 L84.9487593,11.8090204 Z M109.58263,11.8090204 L109.58263,5.71404211 L106.916077,5.71404211 L106.916077,7.23778667 C106.027226,6.09497825 104.757439,5.46008468 103.106715,5.46008468 C99.6782901,5.46008468 97.0117371,8.12663766 97.0117371,11.8090204 C97.0117371,15.491403 99.6782901,18.157956 103.106715,18.157956 C104.884417,18.157956 106.154204,17.5230625 106.916077,16.380254 L106.916077,17.9039986 L109.58263,17.9039986 L109.58263,11.8090204 Z M99.8052688,11.8090204 C99.8052688,9.65038223 101.202035,7.87268024 103.487651,7.87268024 C105.64629,7.87268024 107.170034,9.52340351 107.170034,11.8090204 C107.170034,13.9676585 105.64629,15.7453605 103.487651,15.7453605 C101.202035,15.6183818 99.8052688,13.9676585 99.8052688,11.8090204 L99.8052688,11.8090204 Z M67.9336117,5.46008468 C64.3782077,5.46008468 61.8386335,7.99965895 61.8386335,11.8090204 C61.8386335,15.6183818 64.3782077,18.157956 68.0605904,18.157956 C69.8382924,18.157956 71.6159944,17.6500412 73.0127603,16.5072328 L71.7429731,14.6025521 C70.7271434,15.3644243 69.4573563,15.8723392 68.1875691,15.8723392 C66.5368459,15.8723392 64.8861226,15.1104669 64.5051865,12.9518288 L73.5206751,12.9518288 C73.5206751,12.5708926 73.5206751,12.3169352 73.5206751,11.9359991 C73.6476538,7.99965895 71.362037,5.46008468 67.9336117,5.46008468 L67.9336117,5.46008468 L67.9336117,5.46008468 Z M67.9336117,7.74570152 C69.584335,7.74570152 70.7271434,8.76153123 70.9811008,10.6662119 L64.6321652,10.6662119 C64.8861226,9.01548866 66.028931,7.74570152 67.9336117,7.74570152 L67.9336117,7.74570152 Z M134.089521,11.8090204 L134.089521,0.888850994 L131.422968,0.888850994 L131.422968,7.23778667 C130.534117,6.09497825 129.26433,5.46008468 127.613607,5.46008468 C124.185182,5.46008468 121.518629,8.12663766 121.518629,11.8090204 C121.518629,15.491403 124.185182,18.157956 127.613607,18.157956 C129.391309,18.157956 130.661096,17.5230625 131.422968,16.380254 L131.422968,17.9039986 L134.089521,17.9039986 L134.089521,11.8090204 Z M124.312161,11.8090204 C124.312161,9.65038223 125.708926,7.87268024 127.994543,7.87268024 C130.153181,7.87268024 131.676926,9.52340351 131.676926,11.8090204 C131.676926,13.9676585 130.153181,15.7453605 127.994543,15.7453605 C125.708926,15.6183818 124.312161,13.9676585 124.312161,11.8090204 L124.312161,11.8090204 Z M35.1731036,11.8090204 L35.1731036,5.71404211 L32.5065507,5.71404211 L32.5065507,7.23778667 C31.6176997,6.09497825 30.3479125,5.46008468 28.6971892,5.46008468 C25.268764,5.46008468 22.602211,8.12663766 22.602211,11.8090204 C22.602211,15.491403 25.268764,18.157956 28.6971892,18.157956 C30.4748912,18.157956 31.7446784,17.5230625 32.5065507,16.380254 L32.5065507,17.9039986 L35.1731036,17.9039986 L35.1731036,11.8090204 Z M25.268764,11.8090204 C25.268764,9.65038223 26.6655298,7.87268024 28.9511467,7.87268024 C31.1097848,7.87268024 32.6335294,9.52340351 32.6335294,11.8090204 C32.6335294,13.9676585 31.1097848,15.7453605 28.9511467,15.7453605 C26.6655298,15.6183818 25.268764,13.9676585 25.268764,11.8090204 Z" id="XMLID_1775_"></path>
            </g>
            <g id="XMLID_328_" transform="translate(0.146653, 0.040612)">
                <rect id="rect19" fill="#FF5F00" x="54.8548169" y="10.9201821" width="39.9982948" height="71.8699493"></rect>
                <path d="M57.3943785,46.8551453 C57.3943785,32.2525932 64.251229,19.3007645 74.7904622,10.9201694 C67.0447607,4.82519111 57.2673998,1.14280842 46.6011879,1.14280842 C21.3324239,1.14280842 0.888850994,21.5863813 0.888850994,46.8551453 C0.888850994,72.1239093 21.3324239,92.5674821 46.6011879,92.5674821 C57.2673998,92.5674821 67.0447607,88.8850994 74.7904622,82.7901212 C64.251229,74.5365048 57.3943785,61.4576973 57.3943785,46.8551453 Z" id="XMLID_330_" fill="#EB001B"></path>
                <path d="M148.819052,46.8551453 C148.819052,72.1239093 128.375479,92.5674821 103.106715,92.5674821 C92.4405034,92.5674821 82.6631425,88.8850994 74.917441,82.7901212 C85.5836529,74.4095261 92.3135247,61.4576973 92.3135247,46.8551453 C92.3135247,32.2525932 85.4566742,19.3007645 74.917441,10.9201694 C82.6631425,4.82519111 92.4405034,1.14280842 103.106715,1.14280842 C128.375479,1.14280842 148.819052,21.71336 148.819052,46.8551453 Z" id="path22" fill="#F79E1B"></path>
            </g>
        </g>
    </g>
</svg>