<?xml version="1.0" encoding="UTF-8"?>
<svg width="30px" height="30px" viewBox="0 0 30 30" version="1.1" xmlns="http://www.w3.org/2000/svg" xmlns:xlink="http://www.w3.org/1999/xlink">
    <!-- Generator: Sketch 44.1 (41455) - http://www.bohemiancoding.com/sketch -->
    <title>iconmonstr-map-2-icon</title>
    <desc>Created with Sketch.</desc>
    <defs></defs>
    <g id="Welcome" stroke="none" stroke-width="1" fill="none" fill-rule="evenodd">
        <g id="Desktop" fill-rule="nonzero" fill="#000000">
            <g id="iconmonstr-map-2-icon">
                <path d="M22.0248786,19.081966 C21.4706796,19.081966 20.9319903,18.9707767 20.4238835,18.7513107 L21.0207524,17.3685437 C21.3393932,17.5060922 21.6771845,17.5757767 22.0248786,17.5757767 C22.309733,17.5757767 22.5903641,17.5284466 22.8587621,17.4348058 L23.3541262,18.8571117 C22.9260437,19.0063107 22.4787379,19.081966 22.0248786,19.081966 Z M8.06381068,19.0537864 C7.58533981,19.0537864 7.11531553,18.9699029 6.66677184,18.804466 L7.18754854,17.3914078 C7.46876214,17.4950971 7.76366505,17.5475971 8.06373786,17.5475971 C8.39592233,17.5475971 8.71987864,17.4837379 9.02657767,17.3579126 L9.59854369,18.7512379 C9.10958738,18.9519175 8.59317961,19.0537864 8.06381068,19.0537864 Z M19.1468447,18.0524272 L17.0252913,16.8442718 L17.7705583,15.5354126 L19.8921845,16.743568 L19.1468447,18.0524272 Z M10.8950971,18.027233 L10.1208495,16.7353398 L12.2150971,15.4802913 L12.9893447,16.7723301 L10.8950971,18.027233 Z M15.9031311,16.2270874 C15.5925,16.0974029 15.2641019,16.0315049 14.9268932,16.0315049 C14.6317718,16.0316505 14.3415291,16.0825485 14.0643932,16.1828155 L13.5519903,14.7664806 C13.9939078,14.6066505 14.456432,14.5254612 14.9267476,14.5253883 C15.4643447,14.5253883 15.9878883,14.6302427 16.4833981,14.836966 L15.9031311,16.2270874 Z M25.2709951,16.0181068 C24.5873301,16.0181068 24.0331311,16.5723058 24.0331311,17.2559709 C24.0331311,17.9396359 24.5873301,18.493835 25.2709951,18.493835 C25.9546602,18.493835 26.5088592,17.9396359 26.5088592,17.2559709 C26.5088592,16.5723058 25.9545874,16.0181068 25.2709951,16.0181068 Z M4.73701456,16.0181068 C4.05334951,16.0181068 3.49915049,16.5723058 3.49915049,17.2559709 C3.49915049,17.9396359 4.05334951,18.493835 4.73701456,18.493835 C5.42067961,18.493835 5.97487864,17.9396359 5.97487864,17.2559709 C5.97487864,16.5723058 5.4206068,16.0181068 4.73701456,16.0181068 Z M30,4.75521845 C30,2.13531553 27.8758981,0.0111407767 25.2559223,0.0111407767 C22.635801,0.0111407767 20.5116262,2.13531553 20.5116262,4.75521845 C20.5116262,8.65128641 24.2430583,9.0632767 25.2559223,14.9888592 C26.2687864,9.06313107 30,8.65128641 30,4.75521845 Z M23.5544417,4.64024272 C23.5544417,3.70055825 24.3160922,2.93876214 25.2558495,2.93876214 C26.1954612,2.93876214 26.9571845,3.70055825 26.9571845,4.64024272 C26.9571845,5.57978155 26.1954612,6.34150485 25.2558495,6.34150485 C24.3160922,6.34150485 23.5544417,5.57978155 23.5544417,4.64024272 Z M27.8118932,13.7287136 L27.8118932,24.1741748 L22.3534951,27.1379854 L22.3534951,20.5690777 L21.2595874,20.5690777 L21.2595874,27.0184951 L15.3028398,23.1658252 L15.3028398,17.6746602 L14.2595388,17.6746602 L14.2595388,23.1658252 L8.44878641,27.0184951 L8.44878641,20.5690777 L7.35458738,20.5690777 L7.35458738,27.1379854 L2.1881068,24.1741748 L2.1881068,7.65 L7.35458738,10.4126942 L7.35458738,15.9452913 L8.44878641,15.9452913 L8.44878641,10.4628641 L14.2595388,7.4493932 L14.2595388,13.1965049 L15.3028398,13.1965049 L15.3028398,7.4493932 L20.4691748,10.063034 C19.7196117,9.11876214 18.9396117,8.06650485 18.5612621,6.62686893 L14.7811893,4.7038835 L7.95029126,8.25313107 L0,4.02254854 L0,25.4504854 L7.95036408,29.988932 L14.7812621,25.451068 L21.7580097,29.988932 L30,25.4504854 L30,10.1164078 C29.9516505,10.1771359 29.9034466,10.2375728 29.8556068,10.2975 C29.0705097,11.2804369 28.3187621,12.2225243 27.8118932,13.7287136 Z" id="map-2-icon"></path>
            </g>
        </g>
    </g>
</svg>